<?xml version="1.0" encoding="utf-8"?>
<!-- Generator: Adobe Illustrator 27.5.0, SVG Export Plug-In . SVG Version: 6.00 Build 0)  -->
<svg version="1.1" id="Layer_1" xmlns="http://www.w3.org/2000/svg" xmlns:xlink="http://www.w3.org/1999/xlink" x="0px" y="0px"
	 viewBox="0 0 864 864" style="enable-background:new 0 0 864 864;" xml:space="preserve">
<style type="text/css">
	.st0{fill:#2A5EA9;}
</style>
<g>
	<path id="XMLID_6_" class="st0" d="M864.6,435.3C862.2,675.9,666.7,865.8,429.8,864C181.5,862.1-7.5,655.9,0.7,417.1
		C8.8,181.8,206.2-8.7,449.1,0.3C679.5,8.8,866.1,199.2,864.6,435.3z M417.4,820.8c99-0.1,179.3-25.8,250.3-79.5
		c29.7-22.4,55.6-48.7,77.5-78.7c5.7-7.7,5.6-15.4-2.2-21.3c-7.9-6-15.2-3.7-21.1,3.7c-2.9,3.6-5.6,7.3-8.5,10.9
		C565.5,843.3,273.9,834,138.1,637.5C38,492.5,55.7,300.8,180.8,176.3C311.2,46.5,521.8,37.9,662.6,156.4
		c22.3,18.7,41.7,39.9,59.4,62.8c4.2,5.4,9.4,7.9,16.1,6.2c5.7-1.5,9.2-5.5,10.5-11.2c1.5-6.4-2.1-11-5.7-15.7
		C679.6,116,596.7,64.9,494,48.4C323.7,21,158.2,106.9,83.5,262.7C23,389.3,29.1,515.5,102,634.8
		C175.6,755.1,287.2,814.5,417.4,820.8z M732.3,434.7c4.6-156.2-128.1-296.8-284.9-302c-169-5.5-309.6,123.1-314.3,287.4
		c-4.8,170.7,124.1,307.7,296.2,311.3C592.3,734.8,730.3,602.5,732.3,434.7z"/>
	<path id="XMLID_2_" class="st0" d="M434.1,162.2c147.3-0.4,268.4,121.2,268.7,269.9c0.3,148.4-120.3,269-270.1,270
		c-146.2,1-269.6-120.3-269.9-265.1C162.4,282,280.2,162.6,434.1,162.2z M412.9,317.6c4.5,0.7,6.1,4.1,8.1,6.8
		c38.9,50,73.1,102.9,100.8,159.9c14.6,30.2,26.6,61.4,35.4,93.9c4.2,15.4,16,18.3,27.9,7.4c2-1.8,3.8-3.8,5.7-5.8
		c45.1-49.1,64.3-107,56.9-173.1c-6.6-58.2-33.8-105.6-78.8-142.9c-4.2-3.5-8.6-7-14.3-6.6c-6.2,0.4-10.9,3.5-13.1,9.7
		c-2.7,7.8,0.7,13.3,6.6,18c22.9,18.3,41.6,40.2,53.5,67.1c28.6,64.5,23.9,126.5-14.7,185.7c-1.6,2.5-3.1,6.2-6.3,6.3
		c-3.8,0.1-3.9-4.1-4.9-6.9C554.1,474.3,521.9,417,485,362.2c-23-34.2-47.9-67-75.4-97.8c-5-5.6-10.6-9.4-18.2-6.3
		c-7.4,2.9-9.8,9.3-9.9,16.8c0,1.5,0,3.1,0,4.6c0,96.6,0,193.3,0,289.9c0,3.8,0,7.8,1,11.4c1.9,7.1,6.9,11.3,14.3,11
		c7.8-0.4,13-4.5,14-12.7c0.4-3.8,0.3-7.7,0.3-11.5c0-77.4,0-154.8,0.1-232.2C411.3,329.5,410,323.3,412.9,317.6z M282.5,430.4
		c8.9,0,17.7,0.1,26.6,0c12-0.2,19.5-6.2,19.2-15.2c-0.3-8.9-7-14.3-18.7-14.4c-15.8-0.2-31.6,0-47.4-0.1
		c-14.1-0.1-14.5-0.4-10.9-14.5c10.2-39.7,31.1-72.6,62.7-98.7c11.3-9.3,13.7-17.5,7.2-25.1c-6.5-7.6-14.5-6.8-26.2,2.6
		c-0.9,0.7-1.8,1.4-2.7,2.1c-95.7,80.4-102.2,228.3-14.1,316.7c1.9,1.9,3.8,3.9,6,5.3c6.7,4.3,13.5,4,19-1.6
		c5.6-5.6,5.9-12.5,1-18.9c-3-4-6.8-7.4-10.1-11.1c-28.9-32.5-45.1-70.3-48.3-113.7c-0.7-9.6,1.5-14.6,12.3-13.6
		C266.2,431,274.4,430.4,282.5,430.4z"/>
</g>
</svg>
