<?xml version="1.0" encoding="utf-8"?>
<!-- Generator: Adobe Illustrator 27.5.0, SVG Export Plug-In . SVG Version: 6.00 Build 0)  -->
<svg version="1.1" id="Layer_1" xmlns="http://www.w3.org/2000/svg" xmlns:xlink="http://www.w3.org/1999/xlink" x="0px" y="0px"
	 viewBox="0 0 864 736.7" style="enable-background:new 0 0 864 736.7;" xml:space="preserve">
<style type="text/css">
	.st0{fill:#2B5EA9;}
</style>
<g>
	<path class="st0" d="M480.4,369.8c50.9-20.6,173.3-73.6,173.3-139.2c0-34.1-35.2-58.5-62.3-73.6c-45.5-24.9-107.8-36.3-158.7-40.6
		c0.5-7,2.7-15.2,2.7-22.7c0-6.5-5.4-10.3-11.4-10.3c-13,0-11.9,22.2-13,32c-10.8-0.5-21.7-0.9-32-1.1c-46-1-79.4-0.2-124.8,9.1
		c-15.3,3.1-31.4,7.6-46,13c-4.3,2.2-7.6,4.9-7.6,10.3c0,6,4.3,11.4,10.8,11.4c1.1,0,2.2-0.5,3.8-1.1c37.9-11.4,37.9-11.7,77.5-17.7
		c-1.6,1.6-2.2,4.3-2.7,7c-0.5,9.7,0,20.6,0,30.3c-0.5,20.6-0.5,41.2-0.5,61.7c0,29.2,0.5,257.8,9.2,270.8
		c-10.8,1.6-27.6,3.8-37.9,7c-5.4,2.2-8.7,4.3-8.7,10.3s4.3,11.4,10.3,11.4c1.1,0,1.6,0,2.7-0.5c46-9.2,71.1-12,118.3-12
		c20,0,41.7,1.1,60.1,10.3c1.6,0.5,3.8,1.6,5.4,1.6c6,0,10.8-6,10.8-11.4c0-14.6-36.3-19.5-46.6-20.6c2.7-2.2,3.2-4.9,3.2-8.7
		c0-23.3-1.6-47.1-1.6-70.4c0-95.9,4.9-192.8,15.2-288.1c48.2,3.8,107.2,14.6,150,38.4c20.6,11.4,48.2,29.8,48.2,56.3
		c0,54.2-112.6,100.2-155.4,116.4c-10.8,4.3-33.6,11.9-33.6,27.1c0,10.8,10.8,23.8,17.3,31.4c35.7,41.7,128.9,108.8,180.3,124.6
		c1.1,0.5,2.2,0.5,3.2,0.5c6,0,10.3-5.4,10.3-10.8c0-6-2.7-8.1-7.6-10.3c-7-3.2-14.6-5.4-21.7-9.2
		c-43.3-21.7-121.3-74.2-151.6-111.6c-1.6-2.2-5.4-6.5-5.4-9.7C464.1,375.2,476.6,371.5,480.4,369.8z"/>
	<g>
		<path class="st0" d="M669.7,643.3c0-12.4-9-17.9-22.2-18c-6,0-10.3,0.6-12.3,1.1v35.2H648C661.3,661.6,669.7,654.3,669.7,643.3z"
			/>
		<path class="st0" d="M562.7,625c-20.6,0-30.9,19-30.9,40.2c0,20.6,11.2,39,30.7,39c19.7,0,30.9-18.2,30.9-40
			C593.5,645,583.5,625,562.7,625z"/>
		<path class="st0" d="M850.1,593.1L850.1,593.1h-204c73.9-61.5,121-154.2,121-257.9C767.1,150.1,617,0,431.8,0
			S96.5,150.1,96.5,335.3c0,103.7,47.1,196.4,121,257.9H13.9l0,0C6.2,593.1,0,599.4,0,607v115.8c0,7.7,6.2,13.9,13.9,13.9l0,0h836.2
			l0,0c7.7,0,13.9-6.2,13.9-13.9V607C864,599.4,857.8,593.1,850.1,593.1z M83.9,712.8c-1.4-2.9-3.9-10.3-6.7-22.2
			c-2.6-11.6-6.1-14-14.2-14h-4.1v36.2H33.2v-95.1c7.3-1.1,18.3-2,31.2-2c14.7,0,25.3,2,32.6,7.4c6.1,4.7,9.6,11.6,9.6,21
			c0,12-9,20.6-16.6,23.3v0.6c6.4,2.7,9.9,8.9,12.3,17.2c3,9.9,6.2,23.9,8,27.6H83.9z M202.6,669.6c0,29.7-14.9,44.8-41.9,44.8
			c-26.5,0-40.3-14.4-40.3-45.5v-52.5h25.9V671c0,14.6,5,22.9,15.2,22.9c10.3,0,15.3-7.6,15.3-22.9v-54.6h25.9L202.6,669.6
			L202.6,669.6z M245.4,714.4c-11.6,0-22.9-3.1-28.3-6l4.9-21.3c5.9,3,15.4,6,25,6c8.9,0,13.2-3,13.2-7.9c0-4.7-4.3-7.4-15.2-11.2
			c-16.3-5.7-27-14.7-27-29c0-17,14.3-30.2,38.6-30.2c11.6,0,19.7,2.1,26.2,5l-5.4,20.6c-4.1-1.9-11.3-4.6-21-4.6
			c-7.9,0-12.2,2.9-12.2,7.2c0,4.9,5.2,6.9,17.3,11.4c17.3,6.3,25.2,15.6,25.2,29C286.5,700.1,273.5,714.4,245.4,714.4z
			 M383.4,712.8h-25.7v-38.2h-31.3v38.2h-25.9v-96.4h25.9V652h31.3v-35.6h25.7V712.8z M484.9,712.8h-13l-12.2-50.2
			c-3-12.3-5-21.7-6.3-31.5h-0.3c-1.7,9.6-3.9,19-7.4,31.5L432,712.8h-13l-24.5-96.4h13.2l11.4,48.8c2.9,12,5.4,24,7.2,33.3h0.3
			c1.6-9.6,4.6-21,7.9-33.5l12.9-48.6h13l11.7,48.9c2.7,11.4,5.3,22.9,6.7,33h0.3c2-10.6,4.7-21.3,7.7-33.3l12.7-48.6h12.7
			L484.9,712.8z M561.9,714.4c-25.5,0-43.3-19.7-43.3-48.9c0-30.6,19-50.6,44.8-50.6c26.3,0,43.3,20.2,43.3,48.8
			C606.6,696.8,586.5,714.4,561.9,714.4z M252,593.1C170.7,536.3,117.6,442,117.6,335.2c0-173.7,140.8-314.5,314.5-314.5
			s314.5,140.8,314.5,314.5c0,106.7-53.2,201-134.4,257.9H252z M672.7,712.8c-1.6-2.9-3.7-11-6.4-23c-2.9-13.3-8-18.3-19.3-18.7
			h-11.7v41.8h-12.4v-95.1c6.3-1.3,15.3-2,23.9-2c13.3,0,21.9,2.4,27.9,7.9c4.9,4.3,7.6,10.9,7.6,18.3c0,12.7-8,21.2-18.2,24.6v0.4
			c7.4,2.6,11.9,9.4,14.2,19.5c3.1,13.4,5.4,22.7,7.4,26.5h-13V712.8z M753.1,712.8l-31.8-47.3l-9.2,10.6v36.8h-12.4v-96.4h12.4V663
			h0.4c2.6-3.7,5.2-7.2,7.6-10.3l29.5-36.2H765l-34.9,40.9l37.6,55.5L753.1,712.8L753.1,712.8z M797,714.4c-9.3,0-19.5-2.9-24.6-6.3
			l3.1-10.4c5.6,3.4,13.7,6.3,22.3,6.3c12.7,0,20.2-6.7,20.2-16.4c0-9-5.1-14.2-18.2-19.2c-15.7-5.6-25.5-13.7-25.5-27.3
			c0-15,12.4-26.2,31.2-26.2c9.9,0,17,2.3,21.3,4.7l-3.4,10.2c-3.1-1.7-9.6-4.6-18.3-4.6c-13.2,0-18.2,7.9-18.2,14.4
			c0,9,5.9,13.4,19.2,18.6c16.3,6.3,24.6,14.2,24.6,28.3C830.8,701.3,819.7,714.4,797,714.4z"/>
		<path class="st0" d="M67.6,634.7c-4.9,0-7.4,0.3-8.7,0.6v22.9h6.7c9.7,0,15.3-4.9,15.3-12C80.9,638.8,76.2,634.8,67.6,634.7z"/>
	</g>
</g>
</svg>
